<svg xmlns="http://www.w3.org/2000/svg" viewBox="0 0 600 450" font-family="sans-serif" font-size="12">
<rect width="600" height="450" fill="white"/>
<text x="300" y="22" text-anchor="middle" font-size="14" font-weight="bold">Bug 1: Non-Strongly-Simple Reconstruction (n=12, e=15)</text>
<line x1="322.3" y1="97.8" x2="283.0" y2="191.5" stroke="#D1D5DB" stroke-width="1.5"/>
<line x1="322.3" y1="97.8" x2="195.1" y2="47.5" stroke="#D1D5DB" stroke-width="1.5"/>
<line x1="386.7" y1="305.6" x2="259.1" y2="291.2" stroke="#D1D5DB" stroke-width="1.5"/>
<line x1="462.2" y1="133.9" x2="490.2" y2="224.2" stroke="#D1D5DB" stroke-width="1.5"/>
<line x1="259.1" y1="291.2" x2="118.3" y2="255.5" stroke="#D1D5DB" stroke-width="1.5"/>
<line x1="40.0" y1="169.9" x2="74.2" y2="74.8" stroke="#D1D5DB" stroke-width="1.5"/>
<line x1="322.3" y1="97.8" x2="462.2" y2="133.9" stroke="#8B5CF6" stroke-width="3.5" stroke-linecap="round"/>
<line x1="283.0" y1="191.5" x2="259.1" y2="291.2" stroke="#22C55E" stroke-width="3.5" stroke-linecap="round"/>
<line x1="320.4" y1="367.5" x2="386.7" y2="305.6" stroke="#22C55E" stroke-width="3.5" stroke-linecap="round"/>
<line x1="320.4" y1="367.5" x2="259.1" y2="291.2" stroke="#EF4444" stroke-width="3.5" stroke-linecap="round"/>
<line x1="386.7" y1="305.6" x2="490.2" y2="224.2" stroke="#EF4444" stroke-width="3.5" stroke-linecap="round"/>
<line x1="462.2" y1="133.9" x2="560.0" y2="162.6" stroke="#EF4444" stroke-width="3.5" stroke-linecap="round"/>
<line x1="195.1" y1="47.5" x2="74.2" y2="74.8" stroke="#8B5CF6" stroke-width="3.5" stroke-linecap="round"/>
<line x1="490.2" y1="224.2" x2="560.0" y2="162.6" stroke="#22C55E" stroke-width="3.5" stroke-linecap="round"/>
<line x1="40.0" y1="169.9" x2="118.3" y2="255.5" stroke="#8B5CF6" stroke-width="3.5" stroke-linecap="round"/>
<circle cx="322.3" cy="97.8" r="17" fill="#F3F4F6" stroke="#374151" stroke-width="1.5"/>
<text x="322.3" y="97.8" text-anchor="middle" dy="0.35em" font-size="12" font-weight="600" fill="#111827">0</text>
<circle cx="283.0" cy="191.5" r="17" fill="#F3F4F6" stroke="#374151" stroke-width="1.5"/>
<text x="283.0" y="191.5" text-anchor="middle" dy="0.35em" font-size="12" font-weight="600" fill="#111827">1</text>
<circle cx="320.4" cy="367.5" r="17" fill="#F3F4F6" stroke="#374151" stroke-width="1.5"/>
<text x="320.4" y="367.5" text-anchor="middle" dy="0.35em" font-size="12" font-weight="600" fill="#111827">2</text>
<circle cx="386.7" cy="305.6" r="17" fill="#F3F4F6" stroke="#374151" stroke-width="1.5"/>
<text x="386.7" y="305.6" text-anchor="middle" dy="0.35em" font-size="12" font-weight="600" fill="#111827">3</text>
<circle cx="462.2" cy="133.9" r="17" fill="#FEE2E2" stroke="#EF4444" stroke-width="2.5"/>
<text x="462.2" y="133.9" text-anchor="middle" dy="0.35em" font-size="12" font-weight="600" fill="#111827">4</text>
<circle cx="195.1" cy="47.5" r="17" fill="#F3F4F6" stroke="#374151" stroke-width="1.5"/>
<text x="195.1" y="47.5" text-anchor="middle" dy="0.35em" font-size="12" font-weight="600" fill="#111827">5</text>
<circle cx="259.1" cy="291.2" r="17" fill="#F3F4F6" stroke="#374151" stroke-width="1.5"/>
<text x="259.1" y="291.2" text-anchor="middle" dy="0.35em" font-size="12" font-weight="600" fill="#111827">6</text>
<circle cx="490.2" cy="224.2" r="17" fill="#F3F4F6" stroke="#374151" stroke-width="1.5"/>
<text x="490.2" y="224.2" text-anchor="middle" dy="0.35em" font-size="12" font-weight="600" fill="#111827">7</text>
<circle cx="40.0" cy="169.9" r="17" fill="#F3F4F6" stroke="#374151" stroke-width="1.5"/>
<text x="40.0" y="169.9" text-anchor="middle" dy="0.35em" font-size="12" font-weight="600" fill="#111827">8</text>
<circle cx="118.3" cy="255.5" r="17" fill="#F3F4F6" stroke="#374151" stroke-width="1.5"/>
<text x="118.3" y="255.5" text-anchor="middle" dy="0.35em" font-size="12" font-weight="600" fill="#111827">9</text>
<circle cx="74.2" cy="74.8" r="17" fill="#F3F4F6" stroke="#374151" stroke-width="1.5"/>
<text x="74.2" y="74.8" text-anchor="middle" dy="0.35em" font-size="12" font-weight="600" fill="#111827">10</text>
<circle cx="560.0" cy="162.6" r="17" fill="#F3F4F6" stroke="#374151" stroke-width="1.5"/>
<text x="560.0" y="162.6" text-anchor="middle" dy="0.35em" font-size="12" font-weight="600" fill="#111827">11</text>
<line x1="20" y1="395" x2="48" y2="395" stroke="#22C55E" stroke-width="3.5" stroke-linecap="round"/>
<text x="54" y="399" font-size="11" fill="#374151">Correct only (Blossom / MV)</text>
<line x1="20" y1="412" x2="48" y2="412" stroke="#EF4444" stroke-width="3.5" stroke-linecap="round"/>
<text x="54" y="416" font-size="11" fill="#374151">Buggy Blum only</text>
<line x1="20" y1="429" x2="48" y2="429" stroke="#8B5CF6" stroke-width="3.5" stroke-linecap="round"/>
<text x="54" y="433" font-size="11" fill="#374151">Both agree</text>
<text x="300" y="444" text-anchor="middle" font-size="10" fill="#6B7280">Blossom/MV: 6 pairs  |  Buggy Blum: 6 pairs  (vertex 4 matched twice)</text>
</svg>