<svg xmlns="http://www.w3.org/2000/svg" viewBox="0 0 600 450" font-family="sans-serif" font-size="12">
<rect width="600" height="450" fill="white"/>
<text x="300" y="22" text-anchor="middle" font-size="14" font-weight="bold">Bug 2: DFS Subtree Poisoning (n=12, e=15)</text>
<line x1="291.1" y1="135.1" x2="449.3" y2="145.8" stroke="#D1D5DB" stroke-width="1.5"/>
<line x1="143.8" y1="163.2" x2="168.2" y2="228.9" stroke="#D1D5DB" stroke-width="1.5"/>
<line x1="449.3" y1="145.8" x2="453.9" y2="215.6" stroke="#D1D5DB" stroke-width="1.5"/>
<line x1="323.2" y1="236.9" x2="168.2" y2="228.9" stroke="#D1D5DB" stroke-width="1.5"/>
<line x1="291.1" y1="135.1" x2="390.1" y2="108.5" stroke="#EF4444" stroke-width="3.5" stroke-linecap="round"/>
<line x1="291.1" y1="135.1" x2="143.8" y2="163.2" stroke="#22C55E" stroke-width="3.5" stroke-linecap="round"/>
<line x1="560.0" y1="173.9" x2="449.3" y2="145.8" stroke="#EF4444" stroke-width="3.5" stroke-linecap="round"/>
<line x1="560.0" y1="173.9" x2="453.9" y2="215.6" stroke="#22C55E" stroke-width="3.5" stroke-linecap="round"/>
<line x1="390.1" y1="108.5" x2="449.3" y2="145.8" stroke="#22C55E" stroke-width="3.5" stroke-linecap="round"/>
<line x1="143.8" y1="163.2" x2="40.0" y2="197.4" stroke="#EF4444" stroke-width="3.5" stroke-linecap="round"/>
<line x1="323.2" y1="236.9" x2="453.9" y2="215.6" stroke="#EF4444" stroke-width="3.5" stroke-linecap="round"/>
<line x1="323.2" y1="236.9" x2="330.6" y2="306.6" stroke="#22C55E" stroke-width="3.5" stroke-linecap="round"/>
<line x1="40.0" y1="197.4" x2="168.2" y2="228.9" stroke="#22C55E" stroke-width="3.5" stroke-linecap="round"/>
<line x1="430.0" y1="306.6" x2="330.6" y2="306.6" stroke="#EF4444" stroke-width="3.5" stroke-linecap="round"/>
<line x1="430.0" y1="306.6" x2="530.0" y2="306.6" stroke="#22C55E" stroke-width="3.5" stroke-linecap="round"/>
<circle cx="291.1" cy="135.1" r="17" fill="#F3F4F6" stroke="#374151" stroke-width="1.5"/>
<text x="291.1" y="135.1" text-anchor="middle" dy="0.35em" font-size="12" font-weight="600" fill="#111827">0</text>
<circle cx="560.0" cy="173.9" r="17" fill="#F3F4F6" stroke="#374151" stroke-width="1.5"/>
<text x="560.0" y="173.9" text-anchor="middle" dy="0.35em" font-size="12" font-weight="600" fill="#111827">1</text>
<circle cx="390.1" cy="108.5" r="17" fill="#F3F4F6" stroke="#374151" stroke-width="1.5"/>
<text x="390.1" y="108.5" text-anchor="middle" dy="0.35em" font-size="12" font-weight="600" fill="#111827">2</text>
<circle cx="143.8" cy="163.2" r="17" fill="#F3F4F6" stroke="#374151" stroke-width="1.5"/>
<text x="143.8" y="163.2" text-anchor="middle" dy="0.35em" font-size="12" font-weight="600" fill="#111827">3</text>
<circle cx="449.3" cy="145.8" r="17" fill="#F3F4F6" stroke="#374151" stroke-width="1.5"/>
<text x="449.3" y="145.8" text-anchor="middle" dy="0.35em" font-size="12" font-weight="600" fill="#111827">4</text>
<circle cx="323.2" cy="236.9" r="17" fill="#F3F4F6" stroke="#374151" stroke-width="1.5"/>
<text x="323.2" y="236.9" text-anchor="middle" dy="0.35em" font-size="12" font-weight="600" fill="#111827">5</text>
<circle cx="453.9" cy="215.6" r="17" fill="#F3F4F6" stroke="#374151" stroke-width="1.5"/>
<text x="453.9" y="215.6" text-anchor="middle" dy="0.35em" font-size="12" font-weight="600" fill="#111827">6</text>
<circle cx="40.0" cy="197.4" r="17" fill="#F3F4F6" stroke="#374151" stroke-width="1.5"/>
<text x="40.0" y="197.4" text-anchor="middle" dy="0.35em" font-size="12" font-weight="600" fill="#111827">7</text>
<circle cx="430.0" cy="306.6" r="17" fill="#F3F4F6" stroke="#374151" stroke-width="1.5"/>
<text x="430.0" y="306.6" text-anchor="middle" dy="0.35em" font-size="12" font-weight="600" fill="#111827">8</text>
<circle cx="330.6" cy="306.6" r="17" fill="#F3F4F6" stroke="#374151" stroke-width="1.5"/>
<text x="330.6" y="306.6" text-anchor="middle" dy="0.35em" font-size="12" font-weight="600" fill="#111827">9</text>
<circle cx="168.2" cy="228.9" r="17" fill="#F3F4F6" stroke="#374151" stroke-width="1.5"/>
<text x="168.2" y="228.9" text-anchor="middle" dy="0.35em" font-size="12" font-weight="600" fill="#111827">10</text>
<circle cx="530.0" cy="306.6" r="17" fill="#F3F4F6" stroke="#374151" stroke-width="1.5"/>
<text x="530.0" y="306.6" text-anchor="middle" dy="0.35em" font-size="12" font-weight="600" fill="#111827">11</text>
<line x1="20" y1="395" x2="48" y2="395" stroke="#22C55E" stroke-width="3.5" stroke-linecap="round"/>
<text x="54" y="399" font-size="11" fill="#374151">Correct only (Blossom / MV)</text>
<line x1="20" y1="412" x2="48" y2="412" stroke="#EF4444" stroke-width="3.5" stroke-linecap="round"/>
<text x="54" y="416" font-size="11" fill="#374151">Buggy Blum only</text>
<line x1="20" y1="429" x2="48" y2="429" stroke="#8B5CF6" stroke-width="3.5" stroke-linecap="round"/>
<text x="54" y="433" font-size="11" fill="#374151">Both agree</text>
<text x="300" y="444" text-anchor="middle" font-size="10" fill="#6B7280">Blossom/MV: 6 pairs  |  Buggy Blum: 5 pairs</text>
</svg>