<svg xmlns="http://www.w3.org/2000/svg" viewBox="0 0 600 450" font-family="sans-serif" font-size="12">
<rect width="600" height="450" fill="white"/>
<text x="300" y="22" text-anchor="middle" font-size="14" font-weight="bold">Bug 3: MBFS DOM Exclusion Gap (n=14, e=15)</text>
<line x1="430.0" y1="167.5" x2="520.0" y2="167.5" stroke="#D1D5DB" stroke-width="1.5"/>
<line x1="340.0" y1="227.5" x2="240.0" y2="317.5" stroke="#D1D5DB" stroke-width="1.5"/>
<line x1="240.0" y1="137.5" x2="150.0" y2="137.5" stroke="#EF4444" stroke-width="3.5" stroke-linecap="round"/>
<line x1="240.0" y1="137.5" x2="240.0" y2="227.5" stroke="#22C55E" stroke-width="3.5" stroke-linecap="round"/>
<line x1="430.0" y1="167.5" x2="430.0" y2="97.5" stroke="#EF4444" stroke-width="3.5" stroke-linecap="round"/>
<line x1="430.0" y1="167.5" x2="340.0" y2="227.5" stroke="#22C55E" stroke-width="3.5" stroke-linecap="round"/>
<line x1="340.0" y1="97.5" x2="430.0" y2="97.5" stroke="#22C55E" stroke-width="3.5" stroke-linecap="round"/>
<line x1="340.0" y1="97.5" x2="520.0" y2="97.5" stroke="#EF4444" stroke-width="3.5" stroke-linecap="round"/>
<line x1="340.0" y1="227.5" x2="340.0" y2="317.5" stroke="#EF4444" stroke-width="3.5" stroke-linecap="round"/>
<line x1="520.0" y1="167.5" x2="520.0" y2="97.5" stroke="#22C55E" stroke-width="3.5" stroke-linecap="round"/>
<line x1="150.0" y1="317.5" x2="150.0" y2="227.5" stroke="#22C55E" stroke-width="3.5" stroke-linecap="round"/>
<line x1="150.0" y1="317.5" x2="240.0" y2="317.5" stroke="#EF4444" stroke-width="3.5" stroke-linecap="round"/>
<line x1="340.0" y1="317.5" x2="240.0" y2="317.5" stroke="#22C55E" stroke-width="3.5" stroke-linecap="round"/>
<line x1="150.0" y1="137.5" x2="60.0" y2="137.5" stroke="#22C55E" stroke-width="3.5" stroke-linecap="round"/>
<line x1="150.0" y1="227.5" x2="240.0" y2="227.5" stroke="#EF4444" stroke-width="3.5" stroke-linecap="round"/>
<circle cx="240.0" cy="137.5" r="17" fill="#F3F4F6" stroke="#374151" stroke-width="1.5"/>
<text x="240.0" y="137.5" text-anchor="middle" dy="0.35em" font-size="12" font-weight="600" fill="#111827">0</text>
<circle cx="430.0" cy="167.5" r="17" fill="#F3F4F6" stroke="#374151" stroke-width="1.5"/>
<text x="430.0" y="167.5" text-anchor="middle" dy="0.35em" font-size="12" font-weight="600" fill="#111827">1</text>
<circle cx="340.0" cy="97.5" r="17" fill="#F3F4F6" stroke="#374151" stroke-width="1.5"/>
<text x="340.0" y="97.5" text-anchor="middle" dy="0.35em" font-size="12" font-weight="600" fill="#111827">2</text>
<circle cx="430.0" cy="97.5" r="17" fill="#F3F4F6" stroke="#374151" stroke-width="1.5"/>
<text x="430.0" y="97.5" text-anchor="middle" dy="0.35em" font-size="12" font-weight="600" fill="#111827">3</text>
<circle cx="340.0" cy="227.5" r="17" fill="#F3F4F6" stroke="#374151" stroke-width="1.5"/>
<text x="340.0" y="227.5" text-anchor="middle" dy="0.35em" font-size="12" font-weight="600" fill="#111827">4</text>
<circle cx="520.0" cy="167.5" r="17" fill="#F3F4F6" stroke="#374151" stroke-width="1.5"/>
<text x="520.0" y="167.5" text-anchor="middle" dy="0.35em" font-size="12" font-weight="600" fill="#111827">5</text>
<circle cx="150.0" cy="317.5" r="17" fill="#F3F4F6" stroke="#374151" stroke-width="1.5"/>
<text x="150.0" y="317.5" text-anchor="middle" dy="0.35em" font-size="12" font-weight="600" fill="#111827">6</text>
<circle cx="520.0" cy="97.5" r="17" fill="#F3F4F6" stroke="#374151" stroke-width="1.5"/>
<text x="520.0" y="97.5" text-anchor="middle" dy="0.35em" font-size="12" font-weight="600" fill="#111827">7</text>
<circle cx="340.0" cy="317.5" r="17" fill="#F3F4F6" stroke="#374151" stroke-width="1.5"/>
<text x="340.0" y="317.5" text-anchor="middle" dy="0.35em" font-size="12" font-weight="600" fill="#111827">8</text>
<circle cx="150.0" cy="137.5" r="17" fill="#F3F4F6" stroke="#374151" stroke-width="1.5"/>
<text x="150.0" y="137.5" text-anchor="middle" dy="0.35em" font-size="12" font-weight="600" fill="#111827">9</text>
<circle cx="150.0" cy="227.5" r="17" fill="#F3F4F6" stroke="#374151" stroke-width="1.5"/>
<text x="150.0" y="227.5" text-anchor="middle" dy="0.35em" font-size="12" font-weight="600" fill="#111827">10</text>
<circle cx="240.0" cy="317.5" r="17" fill="#F3F4F6" stroke="#374151" stroke-width="1.5"/>
<text x="240.0" y="317.5" text-anchor="middle" dy="0.35em" font-size="12" font-weight="600" fill="#111827">11</text>
<circle cx="60.0" cy="137.5" r="17" fill="#F3F4F6" stroke="#374151" stroke-width="1.5"/>
<text x="60.0" y="137.5" text-anchor="middle" dy="0.35em" font-size="12" font-weight="600" fill="#111827">12</text>
<circle cx="240.0" cy="227.5" r="17" fill="#F3F4F6" stroke="#374151" stroke-width="1.5"/>
<text x="240.0" y="227.5" text-anchor="middle" dy="0.35em" font-size="12" font-weight="600" fill="#111827">13</text>
<line x1="20" y1="395" x2="48" y2="395" stroke="#22C55E" stroke-width="3.5" stroke-linecap="round"/>
<text x="54" y="399" font-size="11" fill="#374151">Correct only (Blossom / MV)</text>
<line x1="20" y1="412" x2="48" y2="412" stroke="#EF4444" stroke-width="3.5" stroke-linecap="round"/>
<text x="54" y="416" font-size="11" fill="#374151">Buggy Blum only</text>
<line x1="20" y1="429" x2="48" y2="429" stroke="#8B5CF6" stroke-width="3.5" stroke-linecap="round"/>
<text x="54" y="433" font-size="11" fill="#374151">Both agree</text>
<text x="300" y="444" text-anchor="middle" font-size="10" fill="#6B7280">Blossom/MV: 7 pairs  |  Buggy Blum: 6 pairs</text>
</svg>